<?xml version="1.0" encoding="utf-8"?>
<!-- Generator: Adobe Illustrator 21.1.0, SVG Export Plug-In . SVG Version: 6.00 Build 0)  -->
<svg version="1.1" id="Layer_1" xmlns="http://www.w3.org/2000/svg" xmlns:xlink="http://www.w3.org/1999/xlink" x="0px" y="0px"
	 viewBox="0 0 3167.6 485.8" style="enable-background:new 0 0 3167.6 485.8;" xml:space="preserve">
<style type="text/css">
	.st0{fill:#FFFFFF;}
</style>
<title>slider2-wave</title>
<desc>Created with Sketch.</desc>
<g id="slider2-wave">
	<path id="Path-4" class="st0" d="M-831.9,378.7c192-26,410.3-26,655,0c367,39,540,52,627,44c69,0,102-22,141-104
		c31-100,209-100,284,0c65,104,228,128,348,120s222-55,337-48s406-29,548-72s241-103,517-83s480,187,768,115c192-48,221,88,87,408
		h-4452c-26-203.3-26-315.4,0-336S-899.2,387.4-831.9,378.7z"/>
</g>
</svg>
